<svg width="40" height="40" viewBox="0 0 40 40" fill="none" xmlns="http://www.w3.org/2000/svg">
<path d="M34.355 11.75C33.86 12.41 33.2 12.905 33.2 13.4C33.2 13.895 33.695 14.39 34.19 15.05C35.015 15.875 35.84 16.535 35.675 17.36C35.675 18.185 34.85 19.01 34.025 19.835L27.26 26.6L24.95 24.455L31.88 17.525L30.23 15.875L27.92 18.185L21.65 11.915L28.25 5.645C28.91 4.985 29.9 4.985 30.56 5.645L34.355 9.44C35.015 10.1 35.015 11.255 34.355 11.75ZM5.15 28.58L20.99 12.74L27.095 19.01L11.42 34.85H5.15V28.58ZM11.75 3.5V8.45H16.7V11.75H11.75V16.7H8.45V11.75H3.5V8.45H8.45V3.5H11.75Z" fill="black"/>
</svg>
