<svg width="22" height="24" viewBox="0 0 22 24" fill="none" xmlns="http://www.w3.org/2000/svg">
<path d="M19.9166 6.06974L12.3555 1.37274C11.9418 1.11416 11.4637 0.977051 10.9759 0.977051C10.488 0.977051 10.01 1.11416 9.5963 1.37274L2.03513 6.06974C1.60512 6.34053 1.26382 6.73133 1.05339 7.19388C0.842947 7.65643 0.772577 8.17048 0.850965 8.67257L2.8028 20.3859C2.90512 20.9995 3.22394 21.5562 3.70146 21.955C4.17898 22.3537 4.78358 22.5682 5.40563 22.5594H16.5998C17.2216 22.5676 17.8258 22.353 18.303 21.9543C18.7802 21.5556 19.0989 20.9992 19.2015 20.3859L21.1545 8.67257C21.2273 8.16534 21.1488 7.64788 20.9289 7.18506C20.7089 6.72225 20.3571 6.33467 19.9178 6.07091" fill="white"/>
<path d="M19.9166 6.06974L12.3555 1.37274C11.9418 1.11416 11.4637 0.977051 10.9759 0.977051C10.488 0.977051 10.01 1.11416 9.5963 1.37274L2.03513 6.06974C1.60512 6.34053 1.26382 6.73133 1.05339 7.19388C0.842947 7.65643 0.772577 8.17048 0.850965 8.67257L2.8028 20.3859C2.90512 20.9995 3.22394 21.5562 3.70146 21.955C4.17898 22.3537 4.78358 22.5682 5.40563 22.5594H16.5998C17.2216 22.5676 17.8258 22.353 18.303 21.9543C18.7802 21.5556 19.0989 20.9992 19.2015 20.3859L21.1545 8.67257C21.2273 8.16534 21.1488 7.64788 20.9289 7.18506C20.7089 6.72225 20.3571 6.33467 19.9178 6.07091" stroke="black" stroke-width="1.5" stroke-linecap="round" stroke-linejoin="round"/>
<path d="M12.9284 9.59785H9.02361C7.94561 9.59785 7.07178 10.4705 7.07178 11.5485V15.4533C7.07178 16.5313 7.94678 17.4052 9.02361 17.4052H12.9284C14.0064 17.4052 14.8803 16.5313 14.8803 15.4533V11.5485C14.8803 10.4705 14.0064 9.59668 12.9284 9.59668" fill="white"/>
<path d="M12.9284 9.59785H9.02361C7.94561 9.59785 7.07178 10.4705 7.07178 11.5485V15.4533C7.07178 16.5313 7.94678 17.4052 9.02361 17.4052H12.9284C14.0064 17.4052 14.8803 16.5313 14.8803 15.4533V11.5485C14.8803 10.4705 14.0064 9.59668 12.9284 9.59668" stroke="black" stroke-width="1.5" stroke-linecap="round" stroke-linejoin="round"/>
</svg>
