<svg width="22" height="24" viewBox="0 0 22 24" fill="none" xmlns="http://www.w3.org/2000/svg">
<path d="M19.9166 6.30216L12.3555 1.60516C11.9418 1.34658 11.4637 1.20947 10.9759 1.20947C10.488 1.20947 10.01 1.34658 9.5963 1.60516L2.03513 6.30216C1.60512 6.57295 1.26382 6.96375 1.05339 7.4263C0.842947 7.88885 0.772577 8.4029 0.850965 8.90499L2.8028 20.6183C2.90512 21.232 3.22394 21.7886 3.70146 22.1874C4.17898 22.5861 4.78358 22.8006 5.40563 22.7918H16.5998C17.2216 22.8001 17.8258 22.5854 18.303 22.1867C18.7802 21.788 19.0989 21.2317 19.2015 20.6183L21.1545 8.90499C21.2273 8.39776 21.1488 7.8803 20.9289 7.41749C20.7089 6.95467 20.3571 6.56709 19.9178 6.30333" fill="#7C7C7C"/>
<path d="M19.9166 6.30216L12.3555 1.60516C11.9418 1.34658 11.4637 1.20947 10.9759 1.20947C10.488 1.20947 10.01 1.34658 9.5963 1.60516L2.03513 6.30216C1.60512 6.57295 1.26382 6.96375 1.05339 7.4263C0.842947 7.88885 0.772577 8.4029 0.850965 8.90499L2.8028 20.6183C2.90512 21.232 3.22394 21.7886 3.70146 22.1874C4.17898 22.5861 4.78358 22.8006 5.40563 22.7918H16.5998C17.2216 22.8001 17.8258 22.5854 18.303 22.1867C18.7802 21.788 19.0989 21.2317 19.2015 20.6183L21.1545 8.90499C21.2273 8.39776 21.1488 7.8803 20.9289 7.41749C20.7089 6.95467 20.3571 6.56709 19.9178 6.30333" stroke="black" stroke-width="1.5" stroke-linecap="round" stroke-linejoin="round"/>
<path d="M12.9284 9.83027H9.02361C7.94561 9.83027 7.07178 10.7029 7.07178 11.7809V15.6858C7.07178 16.7638 7.94678 17.6376 9.02361 17.6376H12.9284C14.0064 17.6376 14.8803 16.7638 14.8803 15.6858V11.7809C14.8803 10.7029 14.0064 9.8291 12.9284 9.8291" fill="#7C7C7C"/>
<path d="M12.9284 9.83027H9.02361C7.94561 9.83027 7.07178 10.7029 7.07178 11.7809V15.6858C7.07178 16.7638 7.94678 17.6376 9.02361 17.6376H12.9284C14.0064 17.6376 14.8803 16.7638 14.8803 15.6858V11.7809C14.8803 10.7029 14.0064 9.8291 12.9284 9.8291" stroke="black" stroke-width="1.5" stroke-linecap="round" stroke-linejoin="round"/>
</svg>
