<svg width="27" height="23" viewBox="0 0 27 23" fill="none" xmlns="http://www.w3.org/2000/svg">
<path fill-rule="evenodd" clip-rule="evenodd" d="M0 3.21202C0 1.86199 1.20883 0.767578 2.7 0.767578H24.3C25.7912 0.767578 27 1.86199 27 3.21202V20.3231C27 21.6732 25.7912 22.7676 24.3 22.7676H2.7C1.20883 22.7676 0 21.6732 0 20.3231V3.21202ZM2.7 2.60091H24.3C24.6728 2.60091 24.975 2.87452 24.975 3.21202V4.35107L13.6872 11.164C13.5738 11.2324 13.4262 11.2324 13.3128 11.164L2.025 4.35107V3.21202C2.025 2.87452 2.32721 2.60091 2.7 2.60091ZM2.025 6.55446V20.3231C2.025 20.6606 2.32721 20.9342 2.7 20.9342H24.3C24.6728 20.9342 24.975 20.6606 24.975 20.3231V6.55446L14.8105 12.6894C14.0169 13.1684 12.9831 13.1684 12.1895 12.6894L2.025 6.55446Z" fill="#7C7C7C"/>
</svg>
