<svg width="27" height="22" viewBox="0 0 27 22" fill="none" xmlns="http://www.w3.org/2000/svg">
<path fill-rule="evenodd" clip-rule="evenodd" d="M0 2.44444C0 1.09441 1.20883 0 2.7 0H24.3C25.7912 0 27 1.09442 27 2.44444V19.5556C27 20.9056 25.7912 22 24.3 22H2.7C1.20883 22 0 20.9056 0 19.5556V2.44444ZM2.7 1.83333H24.3C24.6728 1.83333 24.975 2.10694 24.975 2.44444C24.975 3.15138 24.6051 3.80677 23.9998 4.17208L13.6872 10.3964C13.5738 10.4648 13.4262 10.4648 13.3128 10.3964L3.00019 4.17208C2.39494 3.80677 2.025 3.15138 2.025 2.44444C2.025 2.10694 2.32721 1.83333 2.7 1.83333ZM12.1895 11.9218C7.72308 9.22606 2.025 12.4424 2.025 17.6593V19.5556C2.025 19.8931 2.32721 20.1667 2.7 20.1667H24.3C24.6728 20.1667 24.975 19.8931 24.975 19.5556V17.6593C24.975 12.4424 19.2769 9.22606 14.8105 11.9218C14.0169 12.4008 12.9831 12.4008 12.1895 11.9218Z" fill="#D9D9D9"/>
</svg>
