<svg width="20" height="24" viewBox="0 0 20 24" fill="none" xmlns="http://www.w3.org/2000/svg">
<path d="M19.5795 16.5702C19.4932 16.463 19.4083 16.3559 19.3251 16.2525C18.1802 14.827 17.4876 13.9666 17.4876 9.93107C17.4876 7.84179 17.002 6.1275 16.045 4.84179C15.3394 3.89196 14.3855 3.17143 13.1282 2.63893C13.112 2.62966 13.0976 2.61751 13.0855 2.60304C12.6333 1.04411 11.3958 0 10.0001 0C8.60443 0 7.36745 1.04411 6.91523 2.60143C6.90316 2.61537 6.88892 2.62714 6.87308 2.63625C3.9391 3.87964 2.51322 6.26518 2.51322 9.92946C2.51322 13.9666 1.82161 14.827 0.675703 16.2509C0.59244 16.3543 0.507615 16.4593 0.42123 16.5686C0.198085 16.8456 0.0567046 17.1826 0.0138202 17.5398C-0.0290643 17.897 0.0283424 18.2593 0.179246 18.5839C0.50033 19.2804 1.18465 19.7127 1.96576 19.7127H18.0402C18.8177 19.7127 19.4973 19.2809 19.8195 18.5877C19.971 18.263 20.029 17.9003 19.9864 17.5428C19.9439 17.1852 19.8027 16.8477 19.5795 16.5702ZM10.0001 24C10.7521 23.9994 11.4899 23.7892 12.1353 23.3919C12.7807 22.9945 13.3095 22.4248 13.6658 21.743C13.6826 21.7104 13.6909 21.6738 13.6899 21.6368C13.6888 21.5999 13.6786 21.5638 13.66 21.5322C13.6415 21.5005 13.6153 21.4744 13.584 21.4562C13.5528 21.4381 13.5175 21.4285 13.4816 21.4286H6.51973C6.48379 21.4284 6.44842 21.4379 6.41708 21.456C6.38573 21.4741 6.35949 21.5003 6.34088 21.532C6.32228 21.5636 6.31196 21.5997 6.31093 21.6367C6.3099 21.6737 6.31819 21.7103 6.33499 21.743C6.69122 22.4247 7.22 22.9944 7.86527 23.3917C8.51053 23.7891 9.24823 23.9993 10.0001 24Z" fill="white"/>
</svg>
