<svg width="20" height="25" viewBox="0 0 20 25" fill="none" xmlns="http://www.w3.org/2000/svg">
<path d="M19.5795 17.3378C19.4932 17.2306 19.4083 17.1235 19.3251 17.0201C18.1802 15.5945 17.4876 14.7342 17.4876 10.6987C17.4876 8.60936 17.002 6.89508 16.045 5.60936C15.3394 4.65954 14.3855 3.93901 13.1282 3.40651C13.112 3.39724 13.0976 3.38509 13.0855 3.37061C12.6333 1.81169 11.3958 0.767578 10.0001 0.767578C8.60443 0.767578 7.36745 1.81169 6.91523 3.36901C6.90316 3.38295 6.88892 3.39472 6.87308 3.40383C3.9391 4.64722 2.51322 7.03276 2.51322 10.697C2.51322 14.7342 1.82161 15.5945 0.675703 17.0185C0.59244 17.1219 0.507615 17.2269 0.42123 17.3361C0.198085 17.6132 0.0567046 17.9502 0.0138202 18.3074C-0.0290643 18.6645 0.0283424 19.0269 0.179246 19.3515C0.50033 20.0479 1.18465 20.4803 1.96576 20.4803H18.0402C18.8177 20.4803 19.4973 20.0485 19.8195 19.3553C19.971 19.0306 20.029 18.6679 19.9864 18.3103C19.9439 17.9528 19.8027 17.6152 19.5795 17.3378ZM10.0001 24.7676C10.7521 24.767 11.4899 24.5568 12.1353 24.1595C12.7807 23.7621 13.3095 23.1923 13.6658 22.5106C13.6826 22.4779 13.6909 22.4414 13.6899 22.4044C13.6888 22.3675 13.6786 22.3314 13.66 22.2998C13.6415 22.2681 13.6153 22.2419 13.584 22.2238C13.5528 22.2056 13.5175 22.1961 13.4816 22.1961H6.51973C6.48379 22.196 6.44842 22.2055 6.41708 22.2236C6.38574 22.2417 6.35949 22.2679 6.34088 22.2995C6.32228 22.3312 6.31196 22.3673 6.31093 22.4043C6.3099 22.4413 6.31819 22.4779 6.33499 22.5106C6.69122 23.1923 7.22 23.762 7.86527 24.1593C8.51053 24.5567 9.24823 24.7669 10.0001 24.7676Z" fill="#7C7C7C"/>
</svg>
