<svg width="21" height="21" viewBox="0 0 21 21" fill="none" xmlns="http://www.w3.org/2000/svg">
<path d="M14.4375 13.0176H13.5488L13.2338 12.7138C14.3744 11.3909 15.0012 9.70186 15 7.95508C15 6.50881 14.5711 5.09501 13.7676 3.89247C12.9641 2.68994 11.8221 1.75268 10.4859 1.19921C9.14969 0.645746 7.67939 0.500935 6.2609 0.783089C4.84242 1.06524 3.53946 1.76169 2.51678 2.78436C1.49411 3.80703 0.797665 5.11 0.515511 6.52848C0.233356 7.94697 0.378168 9.41727 0.931634 10.7535C1.4851 12.0896 2.42236 13.2317 3.6249 14.0352C4.82743 14.8387 6.24123 15.2676 7.6875 15.2676C9.49875 15.2676 11.1638 14.6038 12.4463 13.5013L12.75 13.8163V14.7051L18.375 20.3188L20.0513 18.6426L14.4375 13.0176ZM7.6875 13.0176C4.88625 13.0176 2.625 10.7563 2.625 7.95508C2.625 5.15383 4.88625 2.89258 7.6875 2.89258C10.4888 2.89258 12.75 5.15383 12.75 7.95508C12.75 10.7563 10.4888 13.0176 7.6875 13.0176Z" fill="#7C7C7C"/>
</svg>
