<svg width="21" height="21" viewBox="0 0 21 21" fill="none" xmlns="http://www.w3.org/2000/svg">
<path d="M14.4375 13.25H13.5488L13.2338 12.9463C14.3744 11.6233 15.0012 9.93428 15 8.1875C15 6.74123 14.5711 5.32743 13.7676 4.1249C12.9641 2.92236 11.8221 1.9851 10.4859 1.43163C9.14969 0.878168 7.67939 0.733356 6.2609 1.01551C4.84242 1.29767 3.53946 1.99411 2.51678 3.01678C1.49411 4.03946 0.797665 5.34242 0.515511 6.7609C0.233356 8.17939 0.378168 9.64969 0.931634 10.9859C1.4851 12.3221 2.42236 13.4641 3.6249 14.2676C4.82743 15.0711 6.24123 15.5 7.6875 15.5C9.49875 15.5 11.1638 14.8363 12.4463 13.7338L12.75 14.0488V14.9375L18.375 20.5513L20.0513 18.875L14.4375 13.25ZM7.6875 13.25C4.88625 13.25 2.625 10.9888 2.625 8.1875C2.625 5.38625 4.88625 3.125 7.6875 3.125C10.4888 3.125 12.75 5.38625 12.75 8.1875C12.75 10.9888 10.4888 13.25 7.6875 13.25Z" fill="white"/>
</svg>
