<svg width="38" height="48" viewBox="0 0 38 48" fill="none" xmlns="http://www.w3.org/2000/svg">
<path d="M19.0002 0.666504C16.5248 0.666504 14.1508 1.64983 12.4005 3.40017C10.6502 5.15051 9.66683 7.52448 9.66683 9.99984C9.66683 12.4752 10.6502 14.8492 12.4005 16.5995C14.1508 18.3498 16.5248 19.3332 19.0002 19.3332C21.4755 19.3332 23.8495 18.3498 25.5998 16.5995C27.3502 14.8492 28.3335 12.4752 28.3335 9.99984C28.3335 7.52448 27.3502 5.15051 25.5998 3.40017C23.8495 1.64983 21.4755 0.666504 19.0002 0.666504ZM30.6668 23.9998H7.3335C5.47698 23.9998 3.6965 24.7373 2.38375 26.0501C1.07099 27.3628 0.333496 29.1433 0.333496 30.9998C0.333496 36.2078 2.4755 40.3798 5.9895 43.2032C9.4475 45.9798 14.0862 47.3332 19.0002 47.3332C23.9142 47.3332 28.5528 45.9798 32.0108 43.2032C35.5202 40.3798 37.6668 36.2078 37.6668 30.9998C37.6668 29.1433 36.9293 27.3628 35.6166 26.0501C34.3038 24.7373 32.5233 23.9998 30.6668 23.9998Z" fill="black"/>
</svg>
