<svg width="162" height="142" viewBox="0 0 162 142" fill="none" xmlns="http://www.w3.org/2000/svg">
<path d="M91.5433 3.86153C88.7662 2.49658 86.5719 1.62163 84.0005 0.886673C81.6691 0.256699 73.1662 -0.233292 70.6291 0.116699C66.5835 0.71167 59.3149 3.58154 56.5721 5.64645C53.555 7.95634 50.8807 9.07629 46.8007 9.70625C44.0579 10.1262 35.1436 12.9961 32.6751 14.291C28.1837 16.6009 24.2066 21.3957 22.698 26.4005C22.4237 27.3454 21.8409 29.2703 21.4294 30.7053C20.298 34.5901 18.378 36.375 11.6923 39.8048C5.52098 42.9547 2.98383 45.1246 1.1667 48.7644C0.138137 50.8993 0.000993134 51.4243 0.000993134 53.9792C0.000993134 57.024 -0.136139 56.674 2.8124 60.9438C3.94382 62.5538 3.80668 64.0237 2.26383 66.8935C-2.46754 75.7481 1.40672 89.5025 9.49807 92.5823C11.1781 93.2123 11.7266 93.2823 13.2352 93.0023C14.2295 92.7923 15.9438 92.6523 17.0409 92.6523C18.9266 92.6523 19.2009 92.7573 20.1952 93.8423C20.778 94.4722 21.6694 95.6272 22.1837 96.4322C22.9037 97.5521 23.7266 98.1471 25.9551 99.267C30.8236 101.647 35.8979 102.592 40.7322 101.997C43.6121 101.682 45.3264 100.807 46.8693 98.952C48.275 97.2721 48.7207 95.9072 49.5093 90.6574C49.955 87.8926 50.3321 86.4926 50.7778 85.9677C52.0464 84.5327 55.9207 82.9228 60.6863 81.8378C63.4292 81.2079 68.5377 80.4029 68.7091 80.6129C69.2234 81.1029 66.7206 82.1178 58.9378 84.5677C54.4807 86.0026 53.8635 86.5626 54.1035 88.9775C54.2064 89.9925 54.4464 91.1124 54.6178 91.4624C54.7892 91.8474 55.4407 93.2123 56.0235 94.5422C57.3949 97.5521 60.3778 102.207 62.1263 103.992C65.5206 107.527 67.9206 108.472 73.5434 108.542C80.6405 108.577 83.6576 106.862 89.6576 99.302C94.4918 93.2123 97.9204 90.5174 107.212 85.4077C111.977 82.7828 114.892 81.7678 118.972 81.2779C122.195 80.9279 124.286 82.0828 121.44 82.6778C119.177 83.1328 113.315 85.1277 110.915 86.2476C109.886 86.7376 108.72 87.2626 108.343 87.4026C105.326 88.5925 92.7433 100.702 92.7433 102.452C92.7433 102.767 92.5718 103.187 92.3661 103.397C91.7833 103.992 92.5719 106.652 93.7376 108.087C95.5204 110.326 98.4004 112.111 103.2 114.001C107.075 115.541 109.166 116.556 110.812 117.781C113.349 119.706 116.812 125.376 119.452 132.025C122.057 138.535 124.526 142 126.549 142C128.64 142 131.212 139.48 132.309 136.4C132.823 134.965 132.892 134.02 132.754 132.06C132.514 129.191 132.103 127.896 130.046 123.591C126.069 115.366 126.48 112.006 131.657 109.662C134.606 108.332 135.429 107.842 136.732 106.547C137.966 105.252 138.069 105.077 137.897 103.572C137.794 102.662 137.589 101.402 137.486 100.772C137.109 99.057 137.863 98.2521 142.732 94.9622C147.6 91.6724 151.406 88.0325 152.914 85.2327C154.114 82.9928 154.32 79.9479 153.36 77.918C152.811 76.7281 150 73.8232 148.32 72.7033C147.703 72.2833 145.44 69.6234 144.274 67.9435C141.84 64.5137 139.166 57.304 140.263 57.304C141.532 57.304 142.766 59.2989 144.103 63.4637C145.097 66.5786 146.057 68.2935 147.429 69.4834C148.8 70.6384 152.057 72.3533 152.88 72.3533C153.154 72.3533 153.737 71.7583 154.149 71.0234C154.594 70.3234 155.04 69.6584 155.143 69.5534C155.794 69.0284 159.771 63.2187 160.32 62.0288C161.177 60.0689 162 55.7641 162 53.2792C162 51.1443 161.246 46.7695 160.56 44.8796C159.874 42.9197 157.474 39.6298 155.691 38.1949C154.731 37.4249 153.017 36.41 151.886 35.955C148.766 34.6951 148.354 34.3451 147.052 31.4402C146.366 29.9703 145.337 27.7654 144.754 26.5055C141.497 19.5408 134.434 11.4912 128.88 8.48131C123.052 5.33147 116.88 4.5965 101.76 5.33147C96.4461 5.61145 94.5261 5.33145 91.5433 3.86153Z" fill="white"/>
</svg>
