<svg width="16" height="4" viewBox="0 0 16 4" fill="none" xmlns="http://www.w3.org/2000/svg">
<path d="M6.875 2C6.875 2.2225 6.94098 2.44001 7.0646 2.62502C7.18821 2.81002 7.36391 2.95422 7.56948 3.03936C7.77505 3.12451 8.00125 3.14679 8.21948 3.10338C8.43771 3.05997 8.63816 2.95283 8.79549 2.79549C8.95283 2.63816 9.05997 2.4377 9.10338 2.21948C9.14679 2.00125 9.12451 1.77505 9.03936 1.56948C8.95422 1.36391 8.81002 1.18821 8.62502 1.0646C8.44001 0.94098 8.2225 0.875 8 0.875C7.70163 0.875 7.41548 0.993526 7.2045 1.2045C6.99353 1.41548 6.875 1.70163 6.875 2ZM1.625 0.875C1.8475 0.875 2.06501 0.94098 2.25002 1.0646C2.43502 1.18821 2.57922 1.36391 2.66436 1.56948C2.74951 1.77505 2.77179 2.00125 2.72838 2.21948C2.68498 2.4377 2.57783 2.63816 2.42049 2.79549C2.26316 2.95283 2.06271 3.05997 1.84448 3.10338C1.62625 3.14679 1.40005 3.12451 1.19448 3.03936C0.988915 2.95422 0.813213 2.81002 0.689597 2.62502C0.565981 2.44001 0.5 2.2225 0.5 2C0.5 1.70163 0.618527 1.41548 0.829506 1.2045C1.04048 0.993526 1.32663 0.875 1.625 0.875ZM14.375 0.875C14.5975 0.875 14.815 0.94098 15 1.0646C15.185 1.18821 15.3292 1.36391 15.4144 1.56948C15.4995 1.77505 15.5218 2.00125 15.4784 2.21948C15.435 2.4377 15.3278 2.63816 15.1705 2.79549C15.0132 2.95283 14.8127 3.05997 14.5945 3.10338C14.3762 3.14679 14.15 3.12451 13.9445 3.03936C13.7389 2.95422 13.5632 2.81002 13.4396 2.62502C13.316 2.44001 13.25 2.2225 13.25 2C13.25 1.70163 13.3685 1.41548 13.5795 1.2045C13.7905 0.993526 14.0766 0.875 14.375 0.875Z" fill="white"/>
</svg>
