<svg width="276" height="51" viewBox="0 0 276 51" fill="none" xmlns="http://www.w3.org/2000/svg">
<path d="M32.5758 1.37398C31.5876 0.888261 30.8067 0.576907 29.8917 0.315372C29.0621 0.0911951 26.0363 -0.0831686 25.1335 0.0413761C23.6938 0.253097 21.1073 1.27435 20.1313 2.00915C19.0576 2.83113 18.106 3.22966 16.6541 3.45383C15.6781 3.60328 12.5059 4.62453 11.6275 5.08533C10.0292 5.90731 8.61394 7.61354 8.07712 9.39449C7.97951 9.73076 7.7721 10.4157 7.6257 10.9264C7.22308 12.3088 6.53984 12.9439 4.16074 14.1645C1.96465 15.2853 1.0618 16.0575 0.415172 17.3527C0.0491564 18.1124 0.000353409 18.2993 0.000353409 19.2084C0.000353409 20.2919 -0.0484452 20.1674 1.0008 21.6868C1.40341 22.2597 1.35461 22.7828 0.805589 23.804C-0.878079 26.9549 0.500582 31.8494 3.3799 32.9454C3.97773 33.1696 4.17294 33.1945 4.70976 33.0949C5.06358 33.0201 5.67361 32.9703 6.06403 32.9703C6.73505 32.9703 6.83266 33.0077 7.18648 33.3938C7.39388 33.6179 7.7111 34.0289 7.89411 34.3154C8.15032 34.7139 8.44314 34.9256 9.23617 35.3242C10.9686 36.1711 12.7743 36.5073 14.4946 36.2956C15.5194 36.1835 16.1295 35.8722 16.6785 35.2121C17.1787 34.6143 17.3373 34.1286 17.6179 32.2604C17.7766 31.2765 17.9108 30.7784 18.0694 30.5916C18.5208 30.0809 19.8995 29.508 21.5953 29.122C22.5714 28.8978 24.3892 28.6113 24.4502 28.6861C24.6333 28.8604 23.7426 29.2216 20.9731 30.0934C19.387 30.604 19.1674 30.8033 19.2528 31.6626C19.2894 32.0238 19.3748 32.4223 19.4358 32.5469C19.4968 32.6839 19.7286 33.1696 19.936 33.6428C20.4241 34.7139 21.4855 36.3703 22.1077 37.0055C23.3156 38.2634 24.1696 38.5996 26.1705 38.6245C28.696 38.637 29.7697 38.0267 31.9048 35.3366C33.6251 33.1696 34.8451 32.2106 38.1515 30.3923C39.8473 29.4582 40.8844 29.0971 42.3363 28.9227C43.4831 28.7982 44.2273 29.2091 43.2147 29.4209C42.4095 29.5828 40.3232 30.2927 39.4691 30.6912C39.1031 30.8656 38.6883 31.0524 38.5541 31.1022C37.4804 31.5256 33.0028 35.8348 33.0028 36.4575C33.0028 36.5696 32.9418 36.719 32.8686 36.7938C32.6612 37.0055 32.9418 37.952 33.3567 38.4626C33.9911 39.2597 35.0159 39.8949 36.724 40.5674C38.1027 41.1154 38.8469 41.4765 39.4325 41.9124C40.3354 42.5974 41.5676 44.615 42.5071 46.9813C43.4343 49.2978 44.3127 50.5308 45.0326 50.5308C45.7768 50.5308 46.6919 49.6341 47.0823 48.5381C47.2653 48.0275 47.2897 47.6912 47.2409 46.9938C47.1555 45.9725 47.0091 45.5117 46.277 43.9798C44.8618 41.0531 45.0082 39.8575 46.8505 39.0231C47.8997 38.5498 48.1925 38.3754 48.6561 37.9146C49.0953 37.4538 49.132 37.3916 49.071 36.856C49.0344 36.5322 48.9612 36.0839 48.9245 35.8597C48.7903 35.2494 49.0588 34.963 50.7912 33.7923C52.5237 32.6216 53.878 31.3264 54.4148 30.33C54.8418 29.533 54.915 28.4494 54.5734 27.7271C54.3782 27.3037 53.3777 26.27 52.7799 25.8714C52.5603 25.722 51.7551 24.7754 51.3403 24.1776C50.474 22.9571 49.5224 20.3916 49.9128 20.3916C50.3642 20.3916 50.8034 21.1015 51.2793 22.5835C51.6331 23.6919 51.9747 24.3022 52.4627 24.7256C52.9507 25.1366 54.1098 25.7469 54.4026 25.7469C54.5002 25.7469 54.7076 25.5352 54.854 25.2736C55.0126 25.0245 55.1712 24.7879 55.2078 24.7505C55.4396 24.5637 56.8549 22.4963 57.0501 22.0729C57.3551 21.3754 57.6479 19.8436 57.6479 18.9593C57.6479 18.1996 57.3795 16.6428 57.1355 15.9703C56.8915 15.2729 56.0375 14.1022 55.403 13.5916C55.0614 13.3176 54.4514 12.9564 54.0488 12.7945C52.9385 12.3461 52.7921 12.2216 52.3285 11.1879C52.0845 10.6648 51.7185 9.88021 51.5111 9.43186C50.352 6.95347 47.8387 4.089 45.8622 3.01793C43.7881 1.89706 41.592 1.63552 36.2116 1.89706C34.3205 1.99669 33.6373 1.89705 32.5758 1.37398Z" fill="#3EA9FF"/>
<path d="M266.613 38.5C264.707 38.5 263.067 38.1141 261.693 37.3424C260.326 36.5625 259.273 35.4612 258.533 34.0382C257.794 32.6072 257.424 30.9149 257.424 28.9614C257.424 27.0561 257.794 25.3839 258.533 23.9449C259.273 22.5058 260.314 21.3843 261.657 20.5804C263.007 19.7765 264.591 19.3745 266.408 19.3745C267.63 19.3745 268.767 19.5715 269.82 19.9654C270.882 20.3513 271.806 20.9341 272.594 21.7139C273.39 22.4938 274.009 23.4746 274.451 24.6563C274.893 25.8301 275.114 27.2048 275.114 28.7805V30.1914H259.474V27.0078H270.279C270.279 26.2682 270.118 25.613 269.796 25.0422C269.475 24.4714 269.029 24.0253 268.458 23.7037C267.895 23.3741 267.24 23.2093 266.492 23.2093C265.712 23.2093 265.021 23.3901 264.418 23.7519C263.823 24.1056 263.357 24.584 263.019 25.1869C262.682 25.7818 262.509 26.4451 262.501 27.1767V30.2035C262.501 31.1199 262.669 31.9118 263.007 32.5791C263.353 33.2463 263.839 33.7609 264.466 34.1226C265.093 34.4844 265.837 34.6653 266.697 34.6653C267.268 34.6653 267.791 34.5849 268.265 34.4241C268.739 34.2633 269.145 34.0221 269.483 33.7006C269.82 33.379 270.078 32.9851 270.255 32.5188L275.006 32.8323C274.765 33.9739 274.27 34.9708 273.523 35.8229C272.783 36.6671 271.826 37.3263 270.653 37.8006C269.487 38.2669 268.14 38.5 266.613 38.5Z" fill="black"/>
<path d="M255.307 19.6159V23.4748H244.152V19.6159H255.307ZM246.685 15.1782H251.822V32.4467C251.822 32.921 251.894 33.2908 252.039 33.5561C252.184 33.8133 252.385 33.9942 252.642 34.0987C252.907 34.2032 253.213 34.2555 253.558 34.2555C253.8 34.2555 254.041 34.2354 254.282 34.1952C254.523 34.147 254.708 34.1108 254.837 34.0867L255.645 37.9094C255.387 37.9898 255.026 38.0822 254.559 38.1867C254.093 38.2993 253.526 38.3676 252.859 38.3917C251.621 38.44 250.536 38.2752 249.603 37.8973C248.678 37.5195 247.959 36.9326 247.444 36.1367C246.93 35.3408 246.677 34.3359 246.685 33.122V15.1782Z" fill="black"/>
<path d="M231.321 38.488C230.139 38.488 229.086 38.283 228.162 37.873C227.237 37.4549 226.505 36.8399 225.967 36.0279C225.436 35.2079 225.171 34.1869 225.171 32.965C225.171 31.9359 225.36 31.0717 225.738 30.3723C226.116 29.6729 226.63 29.1101 227.281 28.684C227.932 28.2579 228.672 27.9364 229.5 27.7193C230.336 27.5023 231.212 27.3495 232.129 27.2611C233.206 27.1485 234.074 27.044 234.734 26.9475C235.393 26.843 235.871 26.6903 236.169 26.4893C236.466 26.2883 236.615 25.9909 236.615 25.5969V25.5246C236.615 24.7608 236.374 24.17 235.891 23.7519C235.417 23.3339 234.742 23.1248 233.865 23.1248C232.941 23.1248 232.205 23.3299 231.659 23.7399C231.112 24.1418 230.75 24.6483 230.573 25.2593L225.822 24.8734C226.063 23.7479 226.538 22.7751 227.245 21.9551C227.953 21.1271 228.865 20.492 229.982 20.0498C231.108 19.5996 232.41 19.3745 233.89 19.3745C234.919 19.3745 235.903 19.4951 236.844 19.7363C237.793 19.9775 238.633 20.3513 239.364 20.8578C240.104 21.3642 240.687 22.0154 241.113 22.8113C241.539 23.5992 241.752 24.5438 241.752 25.6452V38.1383H236.88V35.5697H236.735C236.438 36.1485 236.04 36.659 235.542 37.1012C235.043 37.5353 234.444 37.877 233.745 38.1262C233.045 38.3674 232.237 38.488 231.321 38.488ZM232.792 34.9426C233.548 34.9426 234.215 34.7939 234.794 34.4964C235.373 34.191 235.827 33.781 236.157 33.2664C236.486 32.7519 236.651 32.1691 236.651 31.5179V29.5523C236.49 29.6568 236.269 29.7533 235.988 29.8417C235.714 29.9221 235.405 29.9985 235.059 30.0708C234.714 30.1351 234.368 30.1954 234.022 30.2517C233.676 30.2999 233.363 30.3441 233.082 30.3843C232.479 30.4728 231.952 30.6135 231.502 30.8064C231.052 30.9994 230.702 31.2606 230.453 31.5902C230.204 31.9118 230.079 32.3138 230.079 32.7961C230.079 33.4956 230.332 34.0302 230.839 34.4C231.353 34.7617 232.004 34.9426 232.792 34.9426Z" fill="black"/>
<path d="M195.349 38.1383V19.6157H200.245V22.8837H200.462C200.848 21.7984 201.491 20.9422 202.391 20.3151C203.291 19.688 204.369 19.3745 205.623 19.3745C206.893 19.3745 207.974 19.6921 208.867 20.3272C209.759 20.9542 210.354 21.8064 210.651 22.8837H210.844C211.222 21.8225 211.906 20.9743 212.894 20.3392C213.891 19.6961 215.069 19.3745 216.428 19.3745C218.156 19.3745 219.559 19.9252 220.636 21.0266C221.722 22.1199 222.264 23.6715 222.264 25.6813V38.1383H217.139V26.6943C217.139 25.6653 216.866 24.8935 216.319 24.379C215.772 23.8645 215.089 23.6072 214.269 23.6072C213.337 23.6072 212.609 23.9047 212.086 24.4996C211.564 25.0864 211.303 25.8622 211.303 26.8269V38.1383H206.322V26.5858C206.322 25.6773 206.061 24.9538 205.538 24.4152C205.024 23.8765 204.345 23.6072 203.5 23.6072C202.93 23.6072 202.415 23.7519 201.957 24.0413C201.507 24.3227 201.149 24.7206 200.884 25.2352C200.618 25.7416 200.486 26.3366 200.486 27.0199V38.1383H195.349Z" fill="black"/>
<path d="M184.071 38.5C182.173 38.5 180.541 38.0981 179.175 37.2941C177.816 36.4822 176.771 35.3567 176.039 33.9176C175.316 32.4786 174.954 30.8225 174.954 28.9493C174.954 27.052 175.32 25.3879 176.051 23.9569C176.791 22.5179 177.84 21.3964 179.199 20.5925C180.557 19.7805 182.173 19.3745 184.047 19.3745C185.662 19.3745 187.077 19.6679 188.291 20.2548C189.505 20.8417 190.466 21.6657 191.173 22.7269C191.881 23.7881 192.271 25.0342 192.343 26.4652H187.495C187.359 25.5407 186.997 24.797 186.41 24.2343C185.831 23.6635 185.072 23.3781 184.131 23.3781C183.335 23.3781 182.64 23.5951 182.045 24.0293C181.458 24.4554 181 25.0784 180.67 25.8984C180.34 26.7184 180.176 27.7113 180.176 28.877C180.176 30.0588 180.336 31.0637 180.658 31.8917C180.988 32.7198 181.45 33.3508 182.045 33.785C182.64 34.2191 183.335 34.4362 184.131 34.4362C184.718 34.4362 185.244 34.3156 185.711 34.0744C186.185 33.8332 186.575 33.4835 186.88 33.0253C187.194 32.559 187.399 32.0002 187.495 31.3491H192.343C192.263 32.764 191.877 34.0101 191.185 35.0873C190.502 36.1566 189.557 36.9927 188.352 37.5956C187.146 38.1985 185.719 38.5 184.071 38.5Z" fill="black"/>
<path d="M166.732 38.1384V19.6158H171.869V38.1384H166.732ZM169.313 17.2282C168.549 17.2282 167.894 16.9749 167.347 16.4685C166.808 15.9539 166.539 15.3389 166.539 14.6234C166.539 13.916 166.808 13.309 167.347 12.8025C167.894 12.288 168.549 12.0308 169.313 12.0308C170.076 12.0308 170.728 12.288 171.266 12.8025C171.813 13.309 172.086 13.916 172.086 14.6234C172.086 15.3389 171.813 15.9539 171.266 16.4685C170.728 16.9749 170.076 17.2282 169.313 17.2282Z" fill="black"/>
<path d="M151.029 27.4299V38.1383H145.892V19.6157H150.788V22.8837H151.005C151.415 21.8064 152.102 20.9542 153.067 20.3272C154.031 19.6921 155.201 19.3745 156.576 19.3745C157.862 19.3745 158.984 19.6559 159.94 20.2186C160.897 20.7814 161.641 21.5853 162.171 22.6304C162.702 23.6675 162.967 24.9056 162.967 26.3446V38.1383H157.83V27.2611C157.838 26.1275 157.549 25.2432 156.962 24.6081C156.375 23.965 155.567 23.6434 154.538 23.6434C153.847 23.6434 153.236 23.7921 152.705 24.0896C152.182 24.387 151.772 24.8211 151.475 25.3919C151.185 25.9547 151.037 26.634 151.029 27.4299Z" fill="black"/>
<path d="M130.121 27.4303V38.1386H124.983V13.4419H129.976V22.8841H130.193C130.611 21.7907 131.286 20.9345 132.219 20.3155C133.151 19.6884 134.321 19.3749 135.728 19.3749C137.014 19.3749 138.136 19.6563 139.092 20.219C140.057 20.7737 140.805 21.5737 141.335 22.6188C141.874 23.6558 142.139 24.8979 142.131 26.345V38.1386H136.994V27.2615C137.002 26.1199 136.713 25.2315 136.126 24.5964C135.547 23.9613 134.735 23.6438 133.69 23.6438C132.991 23.6438 132.372 23.7925 131.833 24.09C131.302 24.3874 130.884 24.8215 130.579 25.3923C130.281 25.9551 130.129 26.6344 130.121 27.4303Z" fill="black"/>
<path d="M113.704 38.5C111.807 38.5 110.175 38.0981 108.809 37.2941C107.45 36.4822 106.405 35.3567 105.673 33.9176C104.95 32.4786 104.588 30.8225 104.588 28.9493C104.588 27.052 104.954 25.3879 105.685 23.9569C106.425 22.5179 107.474 21.3964 108.833 20.5925C110.191 19.7805 111.807 19.3745 113.68 19.3745C115.296 19.3745 116.711 19.6679 117.925 20.2548C119.139 20.8417 120.1 21.6657 120.807 22.7269C121.515 23.7881 121.905 25.0342 121.977 26.4652H117.129C116.993 25.5407 116.631 24.797 116.044 24.2343C115.465 23.6635 114.705 23.3781 113.765 23.3781C112.969 23.3781 112.273 23.5951 111.679 24.0293C111.092 24.4554 110.633 25.0784 110.304 25.8984C109.974 26.7184 109.809 27.7113 109.809 28.877C109.809 30.0588 109.97 31.0637 110.292 31.8917C110.621 32.7198 111.084 33.3508 111.679 33.785C112.273 34.2191 112.969 34.4362 113.765 34.4362C114.352 34.4362 114.878 34.3156 115.344 34.0744C115.819 33.8332 116.209 33.4835 116.514 33.0253C116.828 32.559 117.033 32.0002 117.129 31.3491H121.977C121.897 32.764 121.511 34.0101 120.819 35.0873C120.136 36.1566 119.191 36.9927 117.985 37.5956C116.78 38.1985 115.353 38.5 113.704 38.5Z" fill="black"/>
<path d="M93.7651 38.5C91.8598 38.5 90.2198 38.1141 88.845 37.3424C87.4784 36.5625 86.4252 35.4612 85.6856 34.0382C84.946 32.6072 84.5762 30.9149 84.5762 28.9614C84.5762 27.0561 84.946 25.3839 85.6856 23.9449C86.4252 22.5058 87.4663 21.3843 88.8089 20.5804C90.1595 19.7765 91.7432 19.3745 93.5601 19.3745C94.7821 19.3745 95.9196 19.5715 96.9728 19.9654C98.034 20.3513 98.9585 20.9341 99.7463 21.7139C100.542 22.4938 101.161 23.4746 101.603 24.6563C102.046 25.8301 102.267 27.2048 102.267 28.7805V30.1914H86.6262V27.0078H97.431C97.431 26.2682 97.2702 25.613 96.9487 25.0422C96.6271 24.4714 96.1809 24.0253 95.6101 23.7037C95.0474 23.3741 94.3922 23.2093 93.6445 23.2093C92.8647 23.2093 92.1733 23.3901 91.5704 23.7519C90.9755 24.1056 90.5092 24.584 90.1715 25.1869C89.8339 25.7818 89.661 26.4451 89.653 27.1767V30.2035C89.653 31.1199 89.8218 31.9118 90.1595 32.5791C90.5052 33.2463 90.9915 33.7609 91.6186 34.1226C92.2457 34.4844 92.9893 34.6653 93.8495 34.6653C94.4203 34.6653 94.9429 34.5849 95.4172 34.4241C95.8915 34.2633 96.2975 34.0221 96.6351 33.7006C96.9728 33.379 97.23 32.9851 97.4069 32.5188L102.158 32.8323C101.917 33.9739 101.423 34.9708 100.675 35.8229C99.9353 36.6671 98.9786 37.3263 97.8049 37.8006C96.6392 38.2669 95.2926 38.5 93.7651 38.5Z" fill="black"/>
<path d="M64.7656 17.7469V13.4419H85.0488V17.7469H77.4878V38.1386H72.3266V17.7469H64.7656Z" fill="black"/>
</svg>
